<svg xmlns="http://www.w3.org/2000/svg" xmlns:xlink="http://www.w3.org/1999/xlink" width="268" height="446" viewBox="0 0 268 446" version="1.1">
  <title>
    Logo
  </title>
  <desc>
    Created with Sketch.
  </desc>
  <defs>
    <rect id="path-1" x="0" y="0.83" width="47" height="69.28" rx="8"/>
    <mask id="mask-2" maskContentUnits="userSpaceOnUse" maskUnits="objectBoundingBox" x="0" y="0" width="47" height="69.28" fill="white">
      <use xlink:href="#path-1"/>
    </mask>
    <rect id="path-3" x="0" y="0.83" width="47" height="69.28" rx="8"/>
    <mask id="mask-4" maskContentUnits="userSpaceOnUse" maskUnits="objectBoundingBox" x="0" y="0" width="47" height="69.28" fill="white">
      <use xlink:href="#path-3"/>
    </mask>
  </defs>
  <g id="Page-1" stroke="none" stroke-width="1" fill="none" fill-rule="evenodd">
    <g id="Algobots" transform="translate(-556.000000, -131.000000)" stroke="#39302E">
      <g id="Logo" transform="translate(689.993807, 417.975704) rotate(-29.000000) translate(-689.993807, -417.975704) translate(425.493807, 148.975704)">
        <g id="Group-3" transform="translate(264.752877, 277.925798) rotate(60.000000) translate(-264.752877, -277.925798) translate(78.252877, 80.925798)">
          <g id="head" transform="translate(193.419493, 216.986254) rotate(-31.000000) translate(-193.419493, -216.986254) translate(59.919493, 90.986254)">
            <g id="Right-Ear" transform="translate(220.000000, 85.000000)" stroke-width="16" fill="#FEC825">
              <use id="Rectangle-18" mask="url(#mask-2)" xlink:href="#path-1"/>
            </g>
            <g id="Left-Ear" transform="translate(-0.000000, 85.000000)" stroke-width="16" fill="#FEC825">
              <use id="Rectangle-18" mask="url(#mask-4)" xlink:href="#path-3"/>
            </g>
            <polygon id="headOutline" stroke-width="8" fill="#FEC825" points="133 0 238 62.88 238 188.64 133 251.52 28 188.64 28 62.88"/>
            <path d="M186.89 115.91C187.4 115.85 187.91 115.82 188.44 115.82 197.58 115.82 205 125.77 205 138.05 205 150.33 197.58 160.28 188.44 160.28 187.91 160.28 187.4 160.25 186.89 160.18 186.48 160.25 186.07 160.28 185.64 160.28L79 160.28C78.78 160.28 78.57 160.27 78.36 160.26 78.1 160.27 77.83 160.28 77.56 160.28 68.42 160.28 61 150.33 61 138.05 61 125.77 68.42 115.82 77.56 115.82 77.83 115.82 78.1 115.82 78.36 115.84 78.57 115.82 78.78 115.82 79 115.82L185.64 115.82C186.07 115.82 186.48 115.85 186.89 115.91Z" id="Eyes" stroke-width="8" fill="#39302E"/>
            <path d="M103.5 213.02C103.36 211.86 143.26 215.98 153.32 214.71 163.38 213.44 161 207.99 161 207.99" id="Mouth" stroke-width="8" stroke-linecap="square"/>
          </g>
          <g id="right-antenna" transform="translate(194.894852, 52.384032) rotate(34.000000) translate(-194.894852, -52.384032) translate(164.394852, 10.884032)" stroke-width="6">
            <ellipse id="Oval-5" fill="#FEC825" cx="16.46" cy="17.35" rx="16" ry="16.55"/>
            <path d="M60.5 82.21L25.5 30.51" id="Line" stroke-linecap="square"/>
          </g>
          <g id="left-antenna" transform="translate(46.802128, 144.720201) rotate(-28.000000) translate(-46.802128, -144.720201) translate(16.802128, 103.220201)" stroke-width="6">
            <ellipse id="Oval-5" fill="#FEC825" cx="16.45" cy="16.67" rx="16" ry="16.55"/>
            <path d="M59.5 82.21L24.5 30.51" id="Line" stroke-linecap="square"/>
          </g>
        </g>
        <polyline id="Path-5" stroke-width="6" transform="translate(370.316737, 84.335316) rotate(27.000000) translate(-370.316737, -84.335316) " points="310.5 134.28 322.12 102.15 353.52 148.35 401.41 20.33 430.13 91.7"/>
      </g>
    </g>
  </g>
</svg>
