<svg width="174px" height="212px" viewBox="0 0 174 212" version="1.1" xmlns="http://www.w3.org/2000/svg" xmlns:xlink="http://www.w3.org/1999/xlink">
    <g id="Page-1" stroke="none" stroke-width="1" fill="none" fill-rule="evenodd">
        <g id="Algobots" transform="translate(-386.000000, -220.000000)">
            <g id="Group-2" transform="translate(351.000000, 211.000000)">
                <g id="security" transform="translate(7.000000, 0.000000)">
                    <g id="Group">
                        <path d="M115.087612,9.5906343 L28.7719029,47.9531715 L28.7719029,105.496977 C28.7719029,158.724998 65.5999386,208.50039 115.087612,220.584589 C164.575285,208.50039 201.40332,158.724998 201.40332,105.496977 L201.40332,47.9531715 L115.087612,9.5906343 L115.087612,9.5906343 Z M115.087612,114.991705 L182.222052,114.991705 C177.139016,154.505119 150.764771,189.702746 115.087612,200.731976 L115.087612,115.087612 L47.9531715,115.087612 L47.9531715,60.4209961 L115.087612,30.5941234 L115.087612,114.991705 L115.087612,114.991705 Z" id="Shape" fill="#39302E"></path>
                        <polygon id="Shape" points="0 0 230.175223 0 230.175223 230.175223 0 230.175223"></polygon>
                    </g>
                </g>
            </g>
        </g>
    </g>
</svg>